<svg width="36" height="38" viewBox="0 0 36 38" fill="none" xmlns="http://www.w3.org/2000/svg">
<g clip-path="url(#clip0_639_63)">
<g clip-path="url(#clip1_639_63)">
<g clip-path="url(#clip2_639_63)">
<path fill-rule="evenodd" clip-rule="evenodd" d="M6.54545 0C4.80949 0 3.14463 0.721988 1.91712 2.00713C0.689609 3.29228 0 5.03531 0 6.85278V30.8375C0 32.655 0.689609 34.398 1.91712 35.6832C3.14463 36.9683 4.80949 37.6903 6.54545 37.6903H29.4545C31.1905 37.6903 32.8554 36.9683 34.0829 35.6832C35.3104 34.398 36 32.655 36 30.8375V6.85278C36 5.03531 35.3104 3.29228 34.0829 2.00713C32.8554 0.721988 31.1905 0 29.4545 0H6.54545ZM31.0909 18.8451C31.0909 22.4801 29.7117 25.9662 27.2567 28.5364C24.8016 31.1067 21.4719 32.5507 18 32.5507C14.5281 32.5507 11.1984 31.1067 8.74333 28.5364C6.28831 25.9662 4.90909 22.4801 4.90909 18.8451C4.90909 15.2102 6.28831 11.7241 8.74333 9.15385C11.1984 6.58356 14.5281 5.13959 18 5.13959C21.4719 5.13959 24.8016 6.58356 27.2567 9.15385C29.7117 11.7241 31.0909 15.2102 31.0909 18.8451ZM9.05236 18.4408C9.05236 18.3141 9.13255 18.1924 9.24545 18.1496L23.9122 12.2956C23.9631 12.277 24.0178 12.2725 24.0709 12.2828C24.124 12.293 24.1736 12.3175 24.2149 12.3539C24.2967 12.4275 24.3327 12.5492 24.3082 12.6605L21.3824 25.5403C21.3714 25.5905 21.3485 25.6371 21.316 25.6757C21.2834 25.7143 21.2421 25.7437 21.1958 25.7613C21.15 25.7795 21.1005 25.7854 21.052 25.7785C21.0034 25.7717 20.9572 25.7522 20.9176 25.7219L15.3949 21.0655L20.3236 16.4364C20.3552 16.406 20.3754 16.3647 20.3805 16.3201C20.3856 16.2755 20.3753 16.2305 20.3515 16.1931C20.3269 16.156 20.2904 16.1294 20.2487 16.1181C20.2069 16.1068 20.1627 16.1115 20.124 16.1314L12.8013 20.0906L9.24545 18.7321C9.18983 18.7083 9.14198 18.6681 9.10771 18.6164C9.07344 18.5647 9.05422 18.5037 9.05236 18.4408Z" fill="#FEF6EB"/>
</g>
</g>
</g>
<defs>
<clipPath id="clip0_639_63">
<rect width="36" height="38" fill="white"/>
</clipPath>
<clipPath id="clip1_639_63">
<rect width="36" height="38" fill="white"/>
</clipPath>
<clipPath id="clip2_639_63">
<rect width="36" height="38" fill="white"/>
</clipPath>
</defs>
</svg>
