<svg width="36" height="38" viewBox="0 0 36 38" fill="none" xmlns="http://www.w3.org/2000/svg">
<path d="M2.52 2.63832C4.76837e-07 5.30177 0 9.56077 0 18.0913V19.599C0 28.117 4.76837e-07 32.376 2.52 35.052C5.064 37.6903 9.132 37.6903 17.28 37.6903H18.72C26.856 37.6903 30.924 37.6903 33.48 35.052C36 32.3885 36 28.1295 36 19.599V18.0913C36 9.57334 36 5.31433 33.48 2.63832C30.936 4.99226e-07 26.868 0 18.72 0H17.28C9.144 0 5.076 4.99226e-07 2.52 2.63832ZM6.072 11.4704H10.2C10.332 18.6567 13.356 21.697 15.756 22.3252V11.4704H19.632V17.6642C21.996 17.4004 24.492 14.5736 25.332 11.4579H29.196C28.8807 13.0706 28.2513 14.598 27.3469 15.9447C26.4426 17.2914 25.2828 18.4284 23.94 19.2849C25.4389 20.0656 26.7625 21.1703 27.8237 22.526C28.8848 23.8816 29.6593 25.4575 30.096 27.1496H25.836C24.924 24.172 22.644 21.8604 19.632 21.5463V27.1496H19.152C10.944 27.1496 6.264 21.2699 6.072 11.4704Z" fill="white"/>
</svg>
