<svg width="38" height="38" viewBox="0 0 38 38" fill="none" xmlns="http://www.w3.org/2000/svg">
<path d="M2.61191 2.6032C4.94227e-07 5.23119 0 9.4335 0 17.8505V19.338C0 27.7427 4.94227e-07 31.945 2.61191 34.5854C5.24868 37.1885 9.46505 37.1885 17.9102 37.1885H19.4027C27.8354 37.1885 32.0518 37.1885 34.701 34.5854C37.3129 31.9574 37.3129 27.7551 37.3129 19.338V17.8505C37.3129 9.44589 37.3129 5.24359 34.701 2.6032C32.0642 4.9258e-07 27.8479 0 19.4027 0H17.9102C9.47748 0 5.26112 4.9258e-07 2.61191 2.6032ZM6.29345 11.3177H10.572C10.7088 18.4083 13.8431 21.4082 16.3306 22.028V11.3177H20.348V17.429C22.7982 17.1687 25.3852 14.3796 26.2559 11.3053H30.2608C29.934 12.8966 29.2816 14.4037 28.3443 15.7324C27.407 17.0612 26.2049 18.1831 24.8131 19.0281C26.3666 19.7985 27.7386 20.8885 28.8384 22.2261C29.9383 23.5637 30.741 25.1186 31.1936 26.7882H26.7782C25.833 23.8503 23.4698 21.5694 20.348 21.2595V26.7882H19.8505C11.3431 26.7882 6.49245 20.9867 6.29345 11.3177Z" fill="black"/>
</svg>
