<svg width="30" height="30" viewBox="0 0 30 30" fill="none" xmlns="http://www.w3.org/2000/svg">
<path fill-rule="evenodd" clip-rule="evenodd" d="M13.5075 5.05595e-08C11.3496 0.000233704 9.22321 0.517395 7.30626 1.50819C5.3893 2.49899 3.73759 3.93458 2.48939 5.69481C1.24119 7.45503 0.432817 9.48866 0.131953 11.6255C-0.168912 13.7622 0.0464824 15.94 0.760104 17.9765C1.47373 20.0129 2.66481 21.8488 4.23365 23.3304C5.80248 24.812 7.70342 25.8962 9.77733 26.4923C11.8512 27.0884 14.0378 27.179 16.1539 26.7565C18.27 26.334 20.2541 25.4107 21.9401 24.064L27.4562 29.5801C27.7393 29.8535 28.1185 30.0048 28.512 30.0014C28.9056 29.998 29.2821 29.8401 29.5604 29.5618C29.8387 29.2835 29.9965 28.9071 29.9999 28.5135C30.0034 28.12 29.8521 27.7408 29.5787 27.4577L24.0625 21.9416C25.6505 19.954 26.6451 17.5585 26.9316 15.0306C27.2182 12.5028 26.7851 9.94539 25.6823 7.65282C24.5795 5.36025 22.8517 3.42569 20.6978 2.07181C18.5439 0.717939 16.0515 -0.000220012 13.5075 5.05595e-08ZM4.50153 13.509C4.50153 12.3263 4.73447 11.1552 5.18706 10.0625C5.63966 8.96987 6.30303 7.97706 7.13931 7.14078C7.97559 6.30449 8.9684 5.64112 10.0611 5.18853C11.1537 4.73593 12.3248 4.50299 13.5075 4.50299C14.6902 4.50299 15.8613 4.73593 16.9539 5.18853C18.0466 5.64112 19.0394 6.30449 19.8757 7.14078C20.712 7.97706 21.3753 8.96987 21.8279 10.0625C22.2805 11.1552 22.5135 12.3263 22.5135 13.509C22.5135 15.8975 21.5646 18.1882 19.8757 19.8771C18.1867 21.5661 15.896 22.5149 13.5075 22.5149C11.119 22.5149 8.82826 21.5661 7.13931 19.8771C5.45037 18.1882 4.50153 15.8975 4.50153 13.509Z" fill="black"/>
</svg>
