<svg width="38" height="38" viewBox="0 0 38 38" fill="none" xmlns="http://www.w3.org/2000/svg">
<path fill-rule="evenodd" clip-rule="evenodd" d="M6.768 0C4.97301 0 3.25155 0.713055 1.9823 1.9823C0.713055 3.25155 0 4.97301 0 6.768V30.456C0 32.251 0.713055 33.9725 1.9823 35.2417C3.25155 36.5109 4.97301 37.224 6.768 37.224H30.456C32.251 37.224 33.9725 36.5109 35.2417 35.2417C36.5109 33.9725 37.224 32.251 37.224 30.456V6.768C37.224 4.97301 36.5109 3.25155 35.2417 1.9823C33.9725 0.713055 32.251 0 30.456 0H6.768ZM32.148 18.612C32.148 22.202 30.7219 25.6449 28.1834 28.1834C25.6449 30.7219 22.202 32.148 18.612 32.148C15.022 32.148 11.5791 30.7219 9.0406 28.1834C6.50211 25.6449 5.076 22.202 5.076 18.612C5.076 15.022 6.50211 11.5791 9.0406 9.0406C11.5791 6.50211 15.022 5.076 18.612 5.076C22.202 5.076 25.6449 6.50211 28.1834 9.0406C30.7219 11.5791 32.148 15.022 32.148 18.612ZM9.36014 18.2127C9.36014 18.0875 9.44305 17.9673 9.5598 17.925L24.7252 12.1435C24.7779 12.1251 24.8344 12.1207 24.8893 12.1308C24.9442 12.1409 24.9955 12.1651 25.0382 12.201C25.1228 12.2738 25.16 12.3939 25.1347 12.5039L22.1094 25.2243C22.098 25.2739 22.0744 25.3199 22.0407 25.358C22.007 25.3962 21.9643 25.4252 21.9165 25.4426C21.8691 25.4606 21.8179 25.4664 21.7677 25.4596C21.7175 25.4528 21.6698 25.4336 21.6288 25.4037L15.9183 20.8048L21.0146 16.233C21.0473 16.203 21.0681 16.1623 21.0734 16.1182C21.0787 16.0742 21.068 16.0297 21.0434 15.9928C21.018 15.9561 20.9803 15.9298 20.9371 15.9187C20.894 15.9075 20.8482 15.9122 20.8082 15.9319L13.2365 19.8421L9.5598 18.5003C9.50228 18.4768 9.45281 18.4371 9.41738 18.3861C9.38194 18.335 9.36206 18.2748 9.36014 18.2127Z" fill="black"/>
</svg>
